<?xml version="1.0" encoding="UTF-8" standalone="no"?>
<svg width="32px" height="33px" viewBox="0 0 32 33" version="1.1" xmlns="http://www.w3.org/2000/svg" xmlns:xlink="http://www.w3.org/1999/xlink">
    <!-- Generator: Sketch 43.2 (39069) - http://www.bohemiancoding.com/sketch -->
    <title>fullscreen</title>
    <desc>Created with Sketch.</desc>
    <defs>
        <filter x="-24.0%" y="-29.2%" width="148.0%" height="158.3%" filterUnits="objectBoundingBox" id="filter-1">
            <feOffset dx="0" dy="0" in="SourceAlpha" result="shadowOffsetOuter1"></feOffset>
            <feGaussianBlur stdDeviation="2" in="shadowOffsetOuter1" result="shadowBlurOuter1"></feGaussianBlur>
            <feColorMatrix values="0 0 0 0 0   0 0 0 0 0   0 0 0 0 0  0 0 0 0.5 0" type="matrix" in="shadowBlurOuter1" result="shadowMatrixOuter1"></feColorMatrix>
            <feMerge>
                <feMergeNode in="shadowMatrixOuter1"></feMergeNode>
                <feMergeNode in="SourceGraphic"></feMergeNode>
            </feMerge>
        </filter>
    </defs>
    <g id="Page-1" stroke="none" stroke-width="1" fill="none" fill-rule="evenodd">
        <g id="huetube-video-spectacular" transform="translate(-966.000000, -729.000000)" fill="#E5E5E4">
            <g id="fullscreen" filter="url(#filter-1)" transform="translate(970.000000, 734.000000)">
                <path d="M0,-0.0003 L10,-0.0003 L10,3.0007 L3,3.0007 L3,9.9997 L0,9.9997 L0,-0.0003 Z M14.0004,-0.0003 L24.0004,-0.0003 L24.0004,9.9997 L20.9994,9.9997 L20.9994,3.0007 L14.0004,3.0007 L14.0004,-0.0003 Z M20.9997,14.0001 L24.0007,14.0001 L24.0007,24.0001 L14.0007,24.0001 L14.0007,21.0001 L20.9997,21.0001 L20.9997,14.0001 Z M0,14.0001 L3,14.0001 L3,21.0001 L10,21.0001 L10,24.0001 L0,24.0001 L0,14.0001 Z"></path>
            </g>
        </g>
    </g>
</svg>