<?xml version="1.0" encoding="UTF-8" standalone="no"?>
<svg width="74px" height="30px" viewBox="0 0 74 30" version="1.1" xmlns="http://www.w3.org/2000/svg" xmlns:xlink="http://www.w3.org/1999/xlink">
    <!-- Generator: Sketch 43.2 (39069) - http://www.bohemiancoding.com/sketch -->
    <title>logo-unfinished</title>
    <desc>Created with Sketch.</desc>
    <defs></defs>
    <g id="Page-1" stroke="none" stroke-width="1" fill="none" fill-rule="evenodd">
        <g id="huetube-video-spectacular" transform="translate(-28.000000, -30.000000)">
            <g id="logo-unfinished" transform="translate(28.000000, 30.000000)">
                <path d="M52.458,0 C52.458,0 43.464,0 37.469,0.431 L37.469,0.431 C36.631,0.53 34.805,0.539 33.175,2.239 L33.175,2.239 C31.891,3.533 31.472,6.472 31.472,6.472 L31.472,6.472 C31.472,6.472 31.044,9.924 31.044,13.375 L31.044,13.375 L31.044,16.612 C31.044,20.063 31.472,23.515 31.472,23.515 L31.472,23.515 C31.472,23.515 31.891,26.454 33.175,27.748 L33.175,27.748 C34.805,29.447 36.946,29.393 37.9,29.572 L37.9,29.572 C41.327,29.899 52.467,30 52.467,30 L52.467,30 C52.467,30 61.471,29.986 67.467,29.555 L67.467,29.555 C68.304,29.456 70.13,29.447 71.76,27.748 L71.76,27.748 C73.044,26.454 73.463,23.515 73.463,23.515 L73.463,23.515 C73.463,23.515 73.891,20.063 73.891,16.612 L73.891,16.612 L73.891,13.375 C73.891,9.924 73.463,6.472 73.463,6.472 L73.463,6.472 C73.463,6.472 73.044,3.533 71.76,2.239 L71.76,2.239 C70.13,0.539 68.304,0.53 67.467,0.431 L67.467,0.431 C61.471,0 52.477,0 52.477,0 L52.477,0 L52.458,0 Z" id="not-mask" fill="#000000"></path>
                <path d="M65.135,13.7974 C65.135,12.4564 65.502,12.0904 66.37,12.0904 C67.231,12.0904 67.574,12.4894 67.574,13.8154 L67.574,15.3814 L65.135,15.3844 L65.135,13.7974 Z M70.305,17.5334 L70.305,14.6004 C70.305,13.0684 70.003,11.9464 69.46,11.2214 C68.732,10.2404 67.698,9.7214 66.394,9.7214 C65.068,9.7214 64.034,10.2404 63.283,11.2214 C62.731,11.9464 62.409,13.1314 62.409,14.6644 L62.409,19.6864 C62.409,21.2094 62.763,22.2764 63.314,22.9944 C64.066,23.9734 65.1,24.4624 66.459,24.4624 C67.816,24.4624 68.882,23.9494 69.601,22.9084 C69.917,22.4484 70.121,21.9274 70.208,21.3524 C70.231,21.0914 70.3,20.4994 70.3,19.6624 L70.3,19.2554 L67.574,19.2554 C67.574,20.2984 67.579,20.9174 67.555,21.0594 C67.406,21.7534 67.034,22.1014 66.394,22.1014 C65.502,22.1014 65.126,21.4344 65.135,20.1104 L65.135,17.5334 L70.305,17.5334 Z" id="Fill-9" fill="#FFFFFF"></path>
                <path d="M57.9604,20.1164 C57.9604,21.5514 57.6224,22.1014 56.8734,22.1014 C56.4454,22.1014 55.9524,21.8814 55.5184,21.4474 L55.5214,12.7444 C55.9554,12.3164 56.4454,12.0904 56.8734,12.0904 C57.6224,12.0904 57.9604,12.5114 57.9604,13.9464 L57.9604,20.1164 Z M58.2624,9.6984 C57.3074,9.6984 56.3574,10.2864 55.5184,11.3194 L55.5214,5.0504 L52.9384,5.0504 L52.9384,24.2774 L55.5214,24.2774 L55.5244,22.8334 C56.3934,23.9074 57.3394,24.4624 58.2624,24.4624 C59.2974,24.4624 60.0534,23.9094 60.3994,22.8424 C60.5734,22.2344 60.6864,21.2994 60.6864,19.9734 L60.6864,14.2334 C60.6864,12.8754 60.5124,11.9464 60.3394,11.3704 C59.9924,10.2964 59.2974,9.6984 58.2624,9.6984 L58.2624,9.6984 Z" id="Fill-11" fill="#FFFFFF"></path>
                <path d="M50.7858,24.2778 L48.0598,24.2778 L48.0598,22.6998 C47.0258,23.8838 46.1508,24.4828 45.1948,24.4828 C44.3568,24.4828 43.7748,24.0868 43.4838,23.3728 C43.3068,22.9388 43.1808,22.2608 43.1808,21.2648 L43.1808,9.9288 L45.9078,9.9288 L45.9078,20.5468 L45.9078,21.5518 C45.9708,21.9538 46.1418,22.1018 46.4888,22.1018 C47.0108,22.1018 47.4828,21.6478 48.0598,20.8338 L48.0598,9.9288 L50.7858,9.9288 L50.7858,24.2778 Z" id="Fill-13" fill="#FFFFFF"></path>
                <polygon id="Fill-15" fill="#FFFFFF" points="40.4547 24.2778 37.5847 24.2778 37.5847 7.7768 34.5717 7.7768 34.5717 5.0538 43.6117 5.0498 43.6117 7.7768 40.4547 7.7768"></polygon>
                <path d="M-1.77635684e-15,24.2778 L-1.77635684e-15,5.1708 L3.281,5.1708 L3.281,12.9518 L6.775,12.9518 L6.775,5.1708 L10.055,5.1708 L10.055,24.2778 L6.775,24.2778 L6.775,15.8098 L3.281,15.8098 L3.281,24.2778 L-1.77635684e-15,24.2778 Z M29.5111,17.6896 L24.4881,17.6896 L24.4881,19.7536 C24.4881,21.3946 24.7461,22.0816 25.6371,22.0816 C26.5271,22.0816 26.7691,21.3946 26.7691,19.7536 L26.7691,19.4356 L29.5111,19.4356 C29.4671,22.4526 28.4201,24.5166 25.6371,24.5166 C22.7871,24.5166 21.7631,22.3476 21.7631,19.2246 L21.7631,15.0436 C21.7631,11.9206 22.7871,9.7506 25.6371,9.7506 C28.4871,9.7506 29.5111,11.9206 29.5111,15.0436 L29.5111,17.6896 Z M26.7691,15.2546 L26.7691,14.5136 C26.7691,12.8736 26.5271,12.1856 25.6371,12.1856 C24.7461,12.1856 24.4881,12.8736 24.4881,14.5136 L24.4881,15.2546 L26.7691,15.2546 Z M19.6102,24.3122 L16.8842,24.3122 L16.8842,22.7342 C15.8502,23.9182 14.9742,24.5172 14.0192,24.5172 C13.1812,24.5172 12.5992,24.1212 12.3082,23.4072 C12.1312,22.9732 12.0052,22.2952 12.0052,21.2992 L12.0052,9.8202 L14.7312,9.8202 L14.7312,20.5812 L14.7312,21.5862 C14.7952,21.9882 14.9662,22.1362 15.3122,22.1362 C15.8342,22.1362 16.3072,21.6822 16.8842,20.8682 L16.8842,9.8202 L19.6102,9.8202 L19.6102,24.3122 Z" id="Combined-Shape" fill="#000000"></path>
            </g>
        </g>
    </g>
</svg>